<?xml version="1.0" standalone="no"?>
<!DOCTYPE svg PUBLIC "-//W3C//DTD SVG 20010904//EN"
 "http://www.w3.org/TR/2001/REC-SVG-20010904/DTD/svg10.dtd">
<svg version="1.0" xmlns="http://www.w3.org/2000/svg"
 width="700.000000pt" height="700.000000pt" viewBox="0 0 700.000000 700.000000"
 preserveAspectRatio="xMidYMid meet">
<metadata>
Created by potrace 1.11, written by Peter Selinger 2001-2013
</metadata>
<g transform="translate(0.000000,700.000000) scale(0.100000,-0.100000)"
fill="#000000" stroke="none">
<path d="M1665 6540 c-10 -17 4 -49 94 -204 85 -147 86 -151 88 -221 1 -58 -3
-82 -23 -125 -35 -75 -29 -109 44 -255 l44 -90 3 -130 c2 -135 5 -149 49 -252
21 -50 27 -84 31 -166 7 -159 19 -214 64 -292 l29 -50 -20 -28 c-17 -24 -20
-39 -15 -95 2 -37 15 -96 27 -131 20 -56 23 -87 25 -225 1 -115 6 -176 18
-213 15 -50 15 -53 -2 -63 -25 -13 -44 -86 -44 -168 0 -51 7 -83 27 -132 47
-112 66 -169 66 -198 0 -15 4 -32 9 -38 5 -5 12 -39 15 -75 3 -36 13 -87 23
-112 24 -60 79 -138 103 -144 31 -8 33 -33 2 -34 -15 -1 -38 -3 -52 -4 -14 -1
-38 8 -55 21 -17 12 -80 46 -140 74 -128 60 -275 140 -275 151 0 3 14 12 32
20 17 7 59 39 93 71 106 98 141 222 109 375 -17 81 -47 133 -117 202 l-55 53
36 75 c30 65 35 84 35 148 -1 106 -27 157 -113 213 -36 23 -70 49 -76 57 -7 9
-22 14 -35 12 -13 -3 -55 8 -94 24 -93 38 -143 37 -212 -1 l-53 -30 -1 62 c-1
95 -7 136 -25 174 -19 39 -64 81 -109 100 -16 7 -40 22 -53 34 -45 42 -118 66
-232 75 -25 1 -48 3 -51 4 -3 1 2 25 12 54 10 28 18 74 19 100 0 45 -2 49 -32
62 -18 7 -44 23 -57 34 -13 12 -29 21 -35 21 -18 0 -59 69 -82 138 -20 63 -22
65 -72 84 -48 18 -122 80 -122 103 0 6 -12 25 -28 43 -27 32 -50 40 -132 41
-14 1 -43 17 -65 36 -22 20 -48 40 -57 45 -46 27 -19 -43 52 -135 56 -72 68
-112 61 -188 -3 -34 -6 -141 -6 -237 1 -189 6 -218 66 -345 l28 -59 -58 -12
c-64 -13 -162 -58 -216 -99 -19 -15 -47 -48 -62 -73 -27 -45 -28 -52 -27 -182
0 -152 15 -205 76 -262 l32 -29 -27 -52 c-35 -69 -49 -126 -50 -212 -2 -61 2
-78 32 -138 49 -98 92 -154 147 -193 51 -37 128 -64 179 -64 43 0 71 -23 95
-77 31 -71 63 -107 137 -156 91 -59 141 -77 232 -83 113 -7 180 -14 235 -23
68 -12 186 -6 226 12 19 8 57 34 83 57 l48 43 97 -44 c116 -52 249 -124 277
-149 11 -10 40 -30 64 -44 43 -24 44 -25 20 -31 -14 -3 -72 -4 -130 -2 -85 3
-112 0 -148 -15 -47 -20 -103 -34 -167 -43 -110 -14 -238 -50 -275 -75 -15
-11 -30 -20 -33 -20 -3 0 -27 -15 -53 -34 -61 -42 -97 -53 -203 -60 -104 -7
-146 -18 -230 -62 -36 -18 -100 -49 -144 -69 l-79 -35 27 -32 c14 -18 59 -76
98 -128 40 -52 84 -106 98 -119 38 -37 176 -124 267 -170 45 -22 84 -45 88
-50 6 -11 -81 -132 -142 -197 -21 -22 -63 -59 -93 -82 -76 -57 -200 -186 -242
-252 -39 -62 -67 -129 -72 -178 -5 -45 15 -42 98 13 38 25 76 45 85 46 9 1 30
2 46 4 17 2 80 5 140 6 125 4 139 -2 198 -74 80 -98 92 -107 156 -118 60 -9
61 -9 158 40 118 58 133 62 248 66 116 4 202 -9 321 -45 114 -35 174 -38 246
-9 33 13 74 21 110 20 74 -1 173 30 219 69 54 44 99 117 99 159 l0 36 30 -55
c16 -30 57 -80 90 -111 71 -67 73 -76 28 -186 -29 -71 -31 -88 -33 -198 -1
-131 -4 -140 -87 -287 -38 -67 -47 -98 -28 -98 5 0 21 17 34 38 27 42 84 97
136 132 19 13 67 56 106 94 64 65 74 80 114 181 50 127 70 159 111 180 l29 16
0 -35 c0 -70 66 -178 159 -261 44 -39 66 -51 126 -69 104 -31 163 -25 264 26
175 89 266 273 216 436 -6 19 -4 22 19 22 36 0 65 -16 98 -54 15 -17 48 -53
73 -81 39 -42 100 -139 93 -147 -1 -2 3 -11 9 -22 9 -17 12 -14 27 25 32 86
44 169 31 225 -6 28 -19 62 -28 75 -17 23 -16 24 32 69 27 25 62 64 79 88 19
27 33 38 37 31 4 -6 31 -22 59 -36 53 -25 124 -65 141 -80 65 -56 125 -95 167
-108 48 -14 83 -38 172 -118 21 -19 45 -33 53 -30 8 3 13 -2 14 -13 1 -23 5
-45 14 -73 5 -16 2 -21 -12 -22 -10 0 -27 -2 -38 -5 -11 -2 -40 -6 -65 -9
-125 -16 -191 -49 -361 -178 -72 -55 -78 -63 -52 -71 30 -10 234 24 257 43 22
17 125 41 178 41 l53 0 -41 -20 c-66 -33 -214 -186 -214 -222 0 -26 16 -22 63
15 50 40 114 60 262 82 60 9 121 23 136 30 39 21 109 95 109 116 0 17 8 19 80
19 47 0 80 4 80 10 0 6 11 10 25 10 15 0 25 6 25 14 0 7 21 29 46 47 25 19 54
41 64 51 10 9 22 13 26 10 28 -23 -30 41 -73 81 -59 55 -70 79 -53 113 13 23
39 34 220 89 30 9 101 41 158 71 105 56 182 79 286 88 78 7 90 20 48 52 -28
22 -62 71 -62 89 0 3 8 5 18 5 37 0 143 61 194 112 30 29 74 82 98 118 80 121
174 235 273 332 56 54 96 101 93 107 -10 15 -71 14 -136 -3 -90 -23 -128 -27
-298 -32 -141 -3 -172 -7 -239 -29 -85 -29 -229 -101 -212 -107 6 -2 -6 -15
-27 -28 -21 -14 -47 -44 -59 -66 l-22 -41 -10 96 c-12 102 -37 165 -72 174
-25 6 -90 162 -109 261 -15 80 -43 200 -57 243 -6 18 0 25 44 47 28 14 61 35
73 47 35 32 144 109 156 109 15 0 82 59 82 73 0 6 7 18 15 27 12 13 16 41 16
104 0 83 2 88 30 114 16 15 78 52 137 83 l107 56 43 124 c29 80 57 142 81 174
50 67 61 89 66 133 6 50 26 133 36 153 9 17 14 41 29 139 6 36 15 92 21 125 5
33 11 116 11 184 l2 125 48 50 c57 60 86 115 97 185 6 37 4 58 -6 77 -10 20
-10 30 -2 40 23 27 13 97 -24 184 -20 47 -37 94 -37 103 0 9 -7 17 -15 17 -9
0 0 15 24 39 28 28 41 51 46 82 4 24 27 86 51 138 24 51 44 97 44 101 0 4 16
24 35 45 42 43 75 105 81 147 3 25 0 29 -14 23 -64 -27 -125 -44 -172 -50 -30
-3 -62 -8 -70 -10 -8 -2 -28 -7 -45 -9 -60 -11 -262 -79 -325 -111 -36 -17
-98 -53 -137 -79 -73 -47 -127 -71 -180 -79 -33 -5 -72 -24 -156 -74 l-58 -35
-57 18 c-31 10 -65 17 -76 16 -25 -1 -79 -39 -146 -102 -70 -66 -119 -87 -217
-94 -43 -2 -87 -8 -98 -12 -25 -9 -99 -71 -185 -155 -166 -162 -218 -200 -292
-213 -45 -8 -128 -69 -229 -168 -106 -103 -155 -141 -221 -171 -37 -16 -80
-49 -120 -89 -85 -85 -95 -99 -148 -203 -59 -116 -73 -138 -136 -207 -29 -32
-67 -86 -84 -122 -28 -57 -32 -74 -32 -153 0 -101 9 -189 24 -217 8 -14 7
-165 -2 -226 0 -3 -4 0 -8 6 -12 18 -72 45 -84 38 -6 -4 -8 -3 -5 2 6 11 -20
23 -98 48 -43 14 -71 19 -131 25 -7 0 -19 12 -28 26 -15 23 -14 27 14 75 17
28 35 72 40 97 6 25 22 65 36 88 48 83 63 172 41 253 -16 63 -10 123 30 281
33 134 35 222 5 272 -20 33 -22 48 -22 240 0 215 0 238 3 306 1 24 -2 42 -7
42 -5 0 -22 26 -37 59 -27 59 -162 212 -187 212 -7 0 -12 9 -12 21 0 33 -19
60 -89 129 -36 36 -76 79 -88 95 -12 17 -50 59 -85 95 -46 48 -75 70 -108 80
-61 19 -153 65 -220 110 -30 20 -81 52 -113 71 -53 31 -79 56 -164 157 -16 18
-75 68 -132 112 -113 86 -222 135 -319 143 -39 3 -62 12 -90 34 -45 36 -82 57
-89 49 -3 -2 -27 4 -54 15 -57 22 -65 23 -74 9z m1686 -3027 c13 -16 12 -17
-3 -4 -17 13 -22 21 -14 21 2 0 10 -8 17 -17z m1575 -1030 c-8 -164 -12 -197
-36 -304 -12 -52 -23 -103 -26 -114 -23 -108 -16 -129 82 -237 36 -40 88 -113
116 -163 28 -49 59 -99 68 -110 36 -43 28 -43 -37 0 -61 41 -86 50 -119 46
-45 -5 -159 64 -252 153 -29 28 -65 56 -81 61 -15 6 -35 17 -43 26 -9 9 -41
28 -72 44 -31 15 -87 57 -126 91 -39 35 -83 70 -98 78 l-28 15 -1 129 -2 130
37 -5 c45 -6 110 34 172 104 30 35 48 46 77 50 48 6 300 71 323 83 9 5 22 16
30 24 7 9 15 16 17 16 3 0 2 -53 -1 -117z"/>
</g>
</svg>
